#!OML:ASF H:\Male1\Project 1\Capture day 1\Session 1\Male1.ASF
:FULLY-SPECIFIED
:DEGREES
455
root 17.7229 17.2722 0.729995 153.381 -82.4305 -149.283
lowerback 17.9073 1.66986 2.5702
upperback 7.18241 2.19347 2.35853
thorax -2.32257 0.880369 0.616295
lowerneck -9.37462 4.08204 9.18833
upperneck 14.0322 5.20551 -7.75374
head 6.23882 2.39574 -3.55432
rclavicle -4.96962e-015 -8.34896e-015
rhumerus -29.4685 9.57131 -82.5133
rradius 45.6175
rwrist -22.9749
rhand -16.2669 0.0564666
rfingers 7.12502
rthumb 9.94262 -29.6887
lclavicle -4.96962e-015 -8.34896e-015
lhumerus -33.2067 -6.30052 85.4272
lradius 45.5345
lwrist 10.1486
lhand -20.2619 10.6937
lfingers 7.12502
lthumb 6.08694 40.5862
rfemur -39.5761 -1.49338 33.9945
rtibia 59.3931
rfoot -27.4825 -13.9138
rtoes -26.8659
lfemur -9.43629 1.12139 -18.4537
ltibia 46.5432
lfoot 0.947127 8.76858
ltoes -16.8812
456
root 17.612 17.4219 0.689281 152.497 -82.4255 -148.488
lowerback 18.0119 1.74294 2.81695
upperback 7.22594 2.32536 2.34327
thorax -2.31742 0.947182 0.43413
lowerneck -9.15075 3.97616 9.24762
upperneck 13.8871 5.06823 -7.77932
head 6.144 2.33546 -3.58704
rclavicle 6.36111e-015 5.56597e-015
rhumerus -29.2201 10.0443 -82.5418
rradius 45.6328
rwrist -22.7777
rhand -16.0608 -0.0101283
rfingers 7.12502
rthumb 10.1415 -29.7457
lclavicle 6.36111e-015 5.56597e-015
lhumerus -33.169 -6.44664 85.2598
lradius 45.7793
lwrist 10.4213
lhand -20.1938 10.4841
lfingers 7.12502
lthumb 6.15274 40.3748
rfemur -37.1996 -1.25034 34.0451
rtibia 56.5001
rfoot -27.3312 -14.1416
rtoes -26.593
lfemur -13.4618 3.27614 -17.8624
ltibia 53.7848
lfoot -1.52669 9.02375
ltoes -17.295
457
root 17.5036 17.5664 0.650497 151.565 -82.4925 -147.703
lowerback 18.0989 1.80526 3.067
upperback 7.27864 2.44258 2.30925
thorax -2.29107 1.00763 0.233667
lowerneck -8.96256 3.85766 9.28355
upperneck 13.79 4.91551 -7.79946
head 6.06834 2.26577 -3.61503
rclavicle -1.39149e-014 -1.59028e-015
rhumerus -28.9858 10.4422 -82.5656
rradius 45.6668
rwrist -22.6517
rhand -15.9633 0.0363205
rfingers 7.12502
rthumb 10.2356 -29.6946
lclavicle -1.39149e-014 -1.59028e-015
lhumerus -33.034 -6.59828 85.1164
lradius 45.8938
lwrist 10.5482
lhand -20.1288 10.3078
lfingers 7.12502
lthumb 6.21545 40.1966
rfemur -34.8062 -1.05502 34.0524
rtibia 53.6066
rfoot -27.0665 -14.3687
rtoes -26.381
lfemur -17.4929 5.17458 -17.4207
ltibia 61.1245
lfoot -4.16399 9.42853
ltoes -18.0794
458
root 17.3968 17.7056 0.61399 150.61 -82.6291 -146.955
lowerback 18.1895 1.86105 3.3136
upperback 7.33657 2.55057 2.2602
thorax -2.2593 1.06407 0.0211043
lowerneck -8.81642 3.71703 9.27339
upperneck 13.7479 4.734 -7.79268
head 6.01282 2.18046 -3.62874
rclavicle -3.22031e-014 1.07344e-014
rhumerus -28.773 10.7537 -82.5817
rradius 45.7015
rwrist -22.5855
rhand -15.9979 0.159911
rfingers 7.12502
rthumb 10.2022 -29.5727
lclavicle -3.22031e-014 1.07344e-014
lhumerus -32.815 -6.73859 85.0009
lradius 45.883
lwrist 10.5409
lhand -20.1525 10.1074
lfingers 7.12502
lthumb 6.19256 39.9969
rfemur -32.3864 -0.927913 34.0108
rtibia 50.7097
rfoot -26.6888 -14.5834
rtoes -26.0934
lfemur -21.5147 6.80106 -17.1165
ltibia 68.4389
lfoot -6.56237 9.8171
ltoes -19.3723
459
root 17.2911 17.8397 0.579922 149.535 -82.8168 -146.12
lowerback 18.2797 1.91099 3.5626
upperback 7.38827 2.65269 2.2088
thorax -2.23245 1.11815 -0.194234
lowerneck -8.74545 3.56345 9.21541
upperneck 13.7894 4.53617 -7.76954
head 5.99359 2.08402 -3.6301
rclavicle 1.94809e-014 0
rhumerus -28.5965 10.9886 -82.589
rradius 45.7391
rwrist -22.5571
rhand -16.1241 0.282765
rfingers 7.12502
rthumb 10.0805 -29.4558
lclavicle 1.94809e-014 0
lhumerus -32.5428 -6.83078 84.9131
lradius 45.7741
lwrist 10.4135
lhand -20.2233 9.952
lfingers 7.12502
lthumb 6.12426 39.8435
rfemur -29.9592 -0.861467 33.942
rtibia 47.7992
rfoot -26.2107 -14.793
rtoes -25.6893
lfemur -25.5366 8.17642 -16.9099
ltibia 75.5985
lfoot -8.56795 9.93089
ltoes -20.7714
460
root 17.186 17.9679 0.548187 148.307 -83.0149 -145.16
lowerback 18.3838 1.96038 3.80998
upperback 7.42932 2.75635 2.16919
thorax -2.22351 1.17279 -0.397207
lowerneck -8.72875 3.39967 9.08997
upperneck 13.8868 4.32837 -7.7238
head 5.99852 1.97952 -3.61348
rclavicle 4.21423e-014 2.54444e-014
rhumerus -28.4634 11.1803 -82.589
rradius 45.7752
rwrist -22.5628
rhand -16.2657 0.356656
rfingers 7.12502
rthumb 9.94386 -29.3885
lclavicle 4.21423e-014 2.54444e-014
lhumerus -32.2617 -6.83126 84.8516
lradius 45.6071
lwrist 10.1888
lhand -20.3069 9.83748
lfingers 7.12502
lthumb 6.04354 39.7313
rfemur -27.5158 -0.816314 33.8736
rtibia 44.8614
rfoot -25.6503 -15.0096
rtoes -25.2008
lfemur -29.5319 9.37226 -16.7512
ltibia 82.4775
lfoot -10.2807 9.69934
ltoes -21.9864
461
root 17.0817 18.0898 0.518691 146.83 -83.207 -143.955
lowerback 18.4911 2.00459 4.06056
upperback 7.45588 2.85667 2.14954
thorax -2.23145 1.22549 -0.580768
lowerneck -8.72785 3.23482 8.91707
upperneck 13.9826 4.12457 -7.67595
head 6.00526 1.87431 -3.58767
rclavicle 2.18663e-015 -8.74653e-015
rhumerus -28.3684 11.3591 -82.587
rradius 45.7967
rwrist -22.5947
rhand -16.3881 0.394327
rfingers 7.12502
rthumb 9.82574 -29.3564
lclavicle 2.18663e-015 -8.74653e-015
lhumerus -31.9992 -6.71115 84.811
lradius 45.414
lwrist 9.90126
lhand -20.3746 9.72781
lfingers 7.12502
lthumb 5.97813 39.6235
rfemur -25.0772 -0.76969 33.8305
rtibia 41.8911
rfoot -24.9988 -15.2539
rtoes -24.7307
lfemur -33.5132 10.4362 -16.6042
ltibia 88.9718
lfoot -11.7927 9.12346
ltoes -22.7672
